<svg width="24" height="24" viewBox="0 0 24 24" fill="none" xmlns="http://www.w3.org/2000/svg">
<path d="M18 9.53027C18 6.21656 15.3137 3.53027 12 3.53027C8.68629 3.53027 6 6.21656 6 9.53027V9.89167C6 11.2175 6.41427 12.5103 7.18492 13.5892L11.9881 20.3137C11.994 20.3218 12.006 20.3218 12.0119 20.3137L16.8151 13.5892C17.5857 12.5103 18 11.2175 18 9.89167V9.53027Z" fill="#C2CCDE" fill-opacity="0.25"/>
<path d="M10.8273 7.13081C11.5684 6.77391 12.4316 6.77391 13.1727 7.13081C13.9138 7.4877 14.4521 8.16265 14.6351 8.96459C14.8182 9.76653 14.6261 10.6082 14.1132 11.2513C13.6004 11.8944 12.8226 12.2689 12 12.2689C11.1774 12.2689 10.3996 11.8944 9.88678 11.2513C9.37392 10.6082 9.18182 9.76653 9.36486 8.96459C9.5479 8.16265 10.0862 7.4877 10.8273 7.13081Z" fill="#C2CCDE" fill-opacity="0.25"/>
<path d="M18 9.53027C18 6.21656 15.3137 3.53027 12 3.53027C8.68629 3.53027 6 6.21656 6 9.53027V9.89167C6 11.2175 6.41427 12.5103 7.18492 13.5892L11.9881 20.3137C11.994 20.3218 12.006 20.3218 12.0119 20.3137L16.8151 13.5892C17.5857 12.5103 18 11.2175 18 9.89167V9.53027Z" stroke="#5A5A5A" stroke-linecap="round" stroke-linejoin="round"/>
<path d="M10.8273 7.13081C11.5684 6.77391 12.4316 6.77391 13.1727 7.13081C13.9138 7.4877 14.4521 8.16265 14.6351 8.96459C14.8182 9.76653 14.6261 10.6082 14.1132 11.2513C13.6004 11.8944 12.8226 12.2689 12 12.2689C11.1774 12.2689 10.3996 11.8944 9.88678 11.2513C9.37392 10.6082 9.18182 9.76653 9.36486 8.96459C9.5479 8.16265 10.0862 7.4877 10.8273 7.13081Z" stroke="#5A5A5A" stroke-linecap="round" stroke-linejoin="round"/>
</svg>
