<svg width="24" height="24" viewBox="0 0 24 24" fill="none" xmlns="http://www.w3.org/2000/svg">
<path d="M9.34836 5.59845C11.0462 4.89519 12.9538 4.89519 14.6517 5.59845C16.3495 6.30171 17.6984 7.65062 18.4017 9.34845C19.1049 11.0463 19.1049 12.9539 18.4017 14.6517C17.6984 16.3496 16.3495 17.6985 14.6517 18.4017C12.9538 19.105 11.0462 19.105 9.34836 18.4017C7.65053 17.6985 6.30162 16.3496 5.59836 14.6517C4.89509 12.9539 4.89509 11.0463 5.59836 9.34845C6.30162 7.65062 7.65053 6.30171 9.34836 5.59845Z" fill="#C2CCDE" fill-opacity="0.25"/>
<path d="M12.0024 7.01115L12 3.6001L11.9976 7.01115C11.9992 7.01115 12.0008 7.01115 12.0024 7.01115Z" fill="#C2CCDE" fill-opacity="0.25"/>
<path d="M16.989 11.9977C16.989 11.9993 16.989 12.0009 16.989 12.0025L20.4 12.0001L16.989 11.9977Z" fill="#C2CCDE" fill-opacity="0.25"/>
<path d="M12.0024 16.989C12.0008 16.989 11.9992 16.989 11.9976 16.989L12 20.4001L12.0024 16.989Z" fill="#C2CCDE" fill-opacity="0.25"/>
<path d="M7.01106 12.0025C7.01106 12.0009 7.01106 11.9993 7.01106 11.9977L3.60001 12.0001L7.01106 12.0025Z" fill="#C2CCDE" fill-opacity="0.25"/>
<path d="M10.9393 9.43944C11.6185 9.15813 12.3815 9.15813 13.0607 9.43944C13.7398 9.72074 14.2794 10.2603 14.5607 10.9394C14.842 11.6186 14.842 12.3816 14.5607 13.0608C14.2794 13.7399 13.7398 14.2795 13.0607 14.5608C12.3815 14.8421 11.6185 14.8421 10.9393 14.5608C10.2602 14.2795 9.72065 13.7399 9.43935 13.0608C9.15804 12.3816 9.15804 11.6186 9.43935 10.9394C9.72065 10.2603 10.2602 9.72074 10.9393 9.43944Z" fill="#C2CCDE" fill-opacity="0.25"/>
<path d="M9.34836 5.59845C11.0462 4.89519 12.9538 4.89519 14.6517 5.59845C16.3495 6.30171 17.6984 7.65062 18.4017 9.34845C19.1049 11.0463 19.1049 12.9539 18.4017 14.6517C17.6984 16.3496 16.3495 17.6985 14.6517 18.4017C12.9538 19.105 11.0462 19.105 9.34836 18.4017C7.65053 17.6985 6.30162 16.3496 5.59836 14.6517C4.89509 12.9539 4.89509 11.0463 5.59836 9.34845C6.30162 7.65062 7.65053 6.30171 9.34836 5.59845Z" stroke="#5A5A5A" stroke-linecap="round" stroke-linejoin="round"/>
<path d="M12.0024 7.01115L12 3.6001L11.9976 7.01115C11.9992 7.01115 12.0008 7.01115 12.0024 7.01115Z" stroke="#5A5A5A" stroke-linecap="round" stroke-linejoin="round"/>
<path d="M16.989 11.9977C16.989 11.9993 16.989 12.0009 16.989 12.0025L20.4 12.0001L16.989 11.9977Z" stroke="#5A5A5A" stroke-linecap="round" stroke-linejoin="round"/>
<path d="M12.0024 16.989C12.0008 16.989 11.9992 16.989 11.9976 16.989L12 20.4001L12.0024 16.989Z" stroke="#5A5A5A" stroke-linecap="round" stroke-linejoin="round"/>
<path d="M7.01106 12.0025C7.01106 12.0009 7.01106 11.9993 7.01106 11.9977L3.60001 12.0001L7.01106 12.0025Z" stroke="#5A5A5A" stroke-linecap="round" stroke-linejoin="round"/>
<path d="M10.9393 9.43944C11.6185 9.15813 12.3815 9.15813 13.0607 9.43944C13.7398 9.72074 14.2794 10.2603 14.5607 10.9394C14.842 11.6186 14.842 12.3816 14.5607 13.0608C14.2794 13.7399 13.7398 14.2795 13.0607 14.5608C12.3815 14.8421 11.6185 14.8421 10.9393 14.5608C10.2602 14.2795 9.72065 13.7399 9.43935 13.0608C9.15804 12.3816 9.15804 11.6186 9.43935 10.9394C9.72065 10.2603 10.2602 9.72074 10.9393 9.43944Z" stroke="#5A5A5A" stroke-linecap="round" stroke-linejoin="round"/>
</svg>
