<svg width="281" height="202" viewBox="0 0 281 202" fill="none" xmlns="http://www.w3.org/2000/svg">
<path d="M107.456 156.35C106.889 155.417 106.106 154.7 105.106 154.2C104.139 153.7 102.989 153.45 101.656 153.45C99.189 153.45 97.239 154.25 95.8056 155.85C94.4056 157.45 93.7056 159.6 93.7056 162.3C93.7056 165.333 94.4556 167.65 95.9556 169.25C97.489 170.817 99.7056 171.6 102.606 171.6C106.039 171.6 108.489 170.05 109.956 166.95H100.106V159.9H118.406V169.4C117.639 171.267 116.506 173.017 115.006 174.65C113.539 176.283 111.672 177.633 109.406 178.7C107.139 179.733 104.556 180.25 101.656 180.25C98.1223 180.25 94.989 179.5 92.2556 178C89.5556 176.467 87.4556 174.35 85.9556 171.65C84.489 168.917 83.7556 165.8 83.7556 162.3C83.7556 158.833 84.489 155.75 85.9556 153.05C87.4556 150.317 89.5556 148.2 92.2556 146.7C94.9556 145.167 98.0723 144.4 101.606 144.4C106.039 144.4 109.706 145.467 112.606 147.6C115.506 149.733 117.306 152.65 118.006 156.35H107.456ZM132.597 156.9C133.697 155.3 135.031 154.033 136.597 153.1C138.164 152.167 139.847 151.7 141.647 151.7V162.15H138.897C136.764 162.15 135.181 162.567 134.147 163.4C133.114 164.233 132.597 165.683 132.597 167.75V180H122.797V151.95H132.597V156.9ZM143.561 165.95C143.561 163.05 144.077 160.517 145.111 158.35C146.177 156.183 147.611 154.517 149.411 153.35C151.244 152.183 153.277 151.6 155.511 151.6C157.444 151.6 159.111 151.983 160.511 152.75C161.911 153.517 162.994 154.55 163.761 155.85V151.95H173.561V180H163.761V176.1C162.994 177.4 161.894 178.433 160.461 179.2C159.061 179.967 157.411 180.35 155.511 180.35C153.277 180.35 151.244 179.767 149.411 178.6C147.611 177.433 146.177 175.767 145.111 173.6C144.077 171.4 143.561 168.85 143.561 165.95ZM163.761 165.95C163.761 164.15 163.261 162.733 162.261 161.7C161.294 160.667 160.094 160.15 158.661 160.15C157.194 160.15 155.977 160.667 155.011 161.7C154.044 162.7 153.561 164.117 153.561 165.95C153.561 167.75 154.044 169.183 155.011 170.25C155.977 171.283 157.194 171.8 158.661 171.8C160.094 171.8 161.294 171.283 162.261 170.25C163.261 169.217 163.761 167.783 163.761 165.95ZM188.945 156.9C190.045 155.3 191.378 154.033 192.945 153.1C194.512 152.167 196.195 151.7 197.995 151.7V162.15H195.245C193.112 162.15 191.528 162.567 190.495 163.4C189.462 164.233 188.945 165.683 188.945 167.75V180H179.145V151.95H188.945V156.9Z" fill="white"/>
<g filter="url(#filter0_f_144_5892)">
<path fill-rule="evenodd" clip-rule="evenodd" d="M140.432 127C169.95 127 193.88 124.314 193.88 121C193.88 117.686 169.95 115 140.432 115C110.913 115 86.9839 117.686 86.9839 121C86.9839 124.314 110.913 127 140.432 127Z" fill="black" fill-opacity="0.2"/>
</g>
<rect x="77.552" width="125.76" height="120" rx="34" fill="white"/>
<mask id="mask0_144_5892" style="mask-type:luminance" maskUnits="userSpaceOnUse" x="77" y="0" width="127" height="120">
<rect x="77.552" width="125.76" height="120" rx="34" fill="white"/>
</mask>
<g mask="url(#mask0_144_5892)">
<path fill-rule="evenodd" clip-rule="evenodd" d="M138.576 -12V0.645075H132.632V49.8526H124.825V34.6987H120.713V31.0384L111.718 34.6987H109.514V25.5954L98.752 12.4011L87.9903 25.5954V56.5529H82.9384V62.5689H75.4841V38.0161H69.3063L69.5636 27.8288H62.4144V24.9111H55.1708L54.0562 7.26697L52.9421 24.9111H51.5488V27.8288H49.6689L50.3577 55.1116H49.0234V43.075L34.0463 34.6987V49.8526H19.0686V38.0161H9.82328V31.0384L-6.01395 41.628V31.0384L-27.248 45.2367V149H-11.4114H-6.01395H9.14854H9.82328H19.0686H34.0463H49.0234H52.1274H65.5634H67.1045H74.6178H75.4841H87.9903H96.1418H109.514H124.825H132.632H145.865H151.522H164.791H168.389H180.574H187.209H197.926H201.809H207.336H216.746H219.161H228.571H233.649H237.981H254.882H261.885H270.992H280.101H287.113H289.209H299.382H302.09H311.256V47.8745H304.043L304.549 27.8288H289.209V-1.18818H280.101V4.97991H270.992V10.6272H261.885V39.7421H254.882V26.2054H252.389V24.7125H236.142V26.2054H233.649V54.4319H228.571V18.1551H226.076V16.6622H209.831V18.1551H207.336V39.0449H201.809V26.2054H199.315V24.7125H183.069V26.2054H180.574V31.0384L175.361 36.3556V45.2703H168.389V39.7421H164.791V26.2054H151.522V18.1912L145.865 13.6202V0.645075H139.921V-12H138.576Z" fill="#FFFBE7" fill-opacity="0.5"/>
<path fill-rule="evenodd" clip-rule="evenodd" d="M210.689 47V56.5034H206.217V93.4855H200.344V82.0966H197.25V79.3457L190.483 82.0966H188.825V75.2549L180.729 65.3387L172.632 75.2549V98.5211H168.832V103.042H163.224V84.5898H158.576L158.77 76.9335H153.391V74.7406H147.942L147.103 61.4801L146.265 74.7406H145.217V76.9335H143.802L144.321 97.4379H143.317V88.3918L132.049 82.0966V93.4855H120.781V84.5898H113.826V79.3457L101.911 87.3043V79.3457L85.936 90.0164V168H97.8503H101.911H113.318H113.826H120.781H132.049H143.317H145.652H155.76H156.92H162.572H163.224H172.632H178.765H188.825H200.344H206.217H216.173H220.429H230.412H233.118H242.285H247.277H255.34H258.261H262.419H269.498H271.315H278.394H282.214H285.473H298.189H303.457H310.309H317.162H322.437H324.014H331.667H333.705H340.6V91.9988H335.174L335.554 76.9335H324.014V55.1257H317.162V59.7613H310.309V64.0055H303.457V85.8869H298.189V75.7134H296.313V74.5914H284.09V75.7134H282.214V96.9271H278.394V69.6632H276.517V68.5412H264.296V69.6632H262.419V85.363H258.261V75.7134H256.384V74.5914H244.162V75.7134H242.285V79.3457L238.363 83.3418V90.0416H233.118V85.8869H230.412V75.7134H220.429V69.6903L216.173 66.2549V56.5034H211.701V47H210.689Z" fill="#FFF1B1" fill-opacity="0.5"/>
<path fill-rule="evenodd" clip-rule="evenodd" d="M42.3113 75V82.2258H45.7158V110.344H50.1877V101.685H52.5429V99.5934L57.6947 101.685H58.9567V96.4831L65.1209 88.9435L71.2847 96.4831V114.173H74.1782V117.611H78.4477V103.581H81.9861L81.8387 97.7593H85.9334V96.092H90.0822L90.7207 86.0097L91.3588 96.092H92.1568V97.7593H93.2335L92.839 113.349H93.6032V106.471L102.181 101.685V110.344H110.76V103.581H116.055V99.5934L125.126 105.645V99.5934L137.288 107.707V167H128.218H125.126H116.442H116.055H110.76H102.181H93.6032H91.8254H84.1298H83.2471H78.9439H78.4477H71.2847H66.6159H58.9567H50.1877H45.7158H38.1364H34.8964H27.2964H25.2357H18.2568H14.4568H8.31836H6.09448H2.92876H-2.46054H-3.84422H-9.23352H-12.1418H-14.6231H-24.3035H-28.3142H-33.5307H-38.7478H-42.7641H-43.9643H-49.7909H-51.3423H-56.5919V109.214H-52.4608L-52.7504 97.7593H-43.9643V81.1782H-38.7478V84.7028H-33.5307V87.9298H-28.3142V104.567H-24.3035V96.8317H-22.8754V95.9786H-13.5703V96.8317H-12.1418V112.961H-9.23352V92.2315H-7.80479V91.3784H1.50002V92.2315H2.92876V104.169H6.09448V96.8317H7.5229V95.9786H16.8277V96.8317H18.2568V99.5934L21.2426 102.632V107.726H25.2357V104.567H27.2964V96.8317H34.8964V92.2521L38.1364 89.6401V82.2258H41.5413V75H42.3113Z" fill="#FFF1B1" fill-opacity="0.5"/>
<path d="M165.373 84.2749L162.986 81.7154L162.98 81.7215L165.373 84.2749ZM115.506 84.2749L117.904 81.7248C117.899 81.7206 117.895 81.7164 117.89 81.7122L115.506 84.2749ZM105.061 55.9469L108.533 56.3885L108.534 56.3801L105.061 55.9469ZM175.801 55.9662L172.327 56.3948L172.329 56.4085L175.801 55.9662ZM175.801 56.0387L177.357 59.174C178.688 58.5133 179.457 57.0837 179.274 55.6085L175.801 56.0387ZM105.061 56.0387L101.582 55.6503C101.419 57.1104 102.186 58.517 103.501 59.1718L105.061 56.0387ZM165.373 84.2749L167.762 86.8328C168.61 86.0416 169.01 84.8821 168.832 83.7366L165.373 84.2749ZM115.506 84.2749L112.047 83.7425C111.871 84.8845 112.271 86.0397 113.114 86.8295L115.506 84.2749ZM172.564 60.01C172.564 68.4783 168.924 76.1767 162.986 81.7154L167.761 86.8344C175.024 80.0594 179.564 70.5443 179.564 60.01H172.564ZM162.98 81.7215C157.187 87.1523 149.244 90.51 140.431 90.51V97.51C151.048 97.51 160.695 93.458 167.767 86.8283L162.98 81.7215ZM140.431 90.51C131.634 90.51 123.676 87.1512 117.904 81.7248L113.109 86.8249C120.166 93.4592 129.834 97.51 140.431 97.51V90.51ZM117.89 81.7122C111.937 76.1749 108.3 68.4783 108.3 60.01H101.3C101.3 70.5443 105.838 80.0612 113.123 86.8376L117.89 81.7122ZM108.3 60.01C108.3 58.7864 108.382 57.5761 108.533 56.3885L101.589 55.5053C101.403 56.9692 101.3 58.4748 101.3 60.01H108.3ZM108.534 56.3801C110.405 41.3802 123.861 29.51 140.431 29.51V22.51C120.543 22.51 103.921 36.8032 101.588 55.5138L108.534 56.3801ZM140.431 29.51C157.022 29.51 170.475 41.3804 172.327 56.3948L179.275 55.5377C176.963 36.8031 160.338 22.51 140.431 22.51V29.51ZM172.329 56.4085C172.481 57.5994 172.564 58.7919 172.564 60.01H179.564C179.564 58.4693 179.458 56.9803 179.273 55.5239L172.329 56.4085ZM174.245 52.9035C164.859 57.5606 153.97 60.3628 141.115 60.3628V67.3628C155.037 67.3628 166.993 64.3163 177.357 59.174L174.245 52.9035ZM141.115 60.3628C128.194 60.3628 115.95 57.5508 106.621 52.9056L103.501 59.1718C113.921 64.3605 127.256 67.3628 141.115 67.3628V60.3628ZM108.539 56.4271C110.255 41.0604 124.679 29.1232 141.033 29.509L141.198 22.511C121.564 22.0478 103.739 36.3415 101.582 55.6503L108.539 56.4271ZM141.033 29.509C157.426 29.8958 170.461 41.3948 172.328 56.4689L179.274 55.6085C176.949 36.8301 160.792 22.9732 141.198 22.511L141.033 29.509ZM162.985 81.7169C157.141 87.1746 149.305 90.51 140.431 90.51V97.51C151.12 97.51 160.653 93.4727 167.762 86.8328L162.985 81.7169ZM140.431 90.51C131.573 90.51 123.722 87.1735 117.899 81.7203L113.114 86.8295C120.209 93.4738 129.761 97.51 140.431 97.51V90.51ZM118.966 84.8073C120.462 75.0852 129.862 67.3628 141.115 67.3628V60.3628C126.873 60.3628 114.137 70.1647 112.047 83.7425L118.966 84.8073ZM141.115 67.3628C152.126 67.3628 160.366 74.8582 161.915 84.8132L168.832 83.7366C166.755 70.3916 155.596 60.3628 141.115 60.3628V67.3628Z" fill="#FEC400"/>
</g>
<defs>
<filter id="filter0_f_144_5892" x="78.829" y="106.845" width="123.206" height="28.3097" filterUnits="userSpaceOnUse" color-interpolation-filters="sRGB">
<feFlood flood-opacity="0" result="BackgroundImageFix"/>
<feBlend mode="normal" in="SourceGraphic" in2="BackgroundImageFix" result="shape"/>
<feGaussianBlur stdDeviation="4.07742" result="effect1_foregroundBlur_144_5892"/>
</filter>
</defs>
</svg>
